# xmcd
#
# Track frame offsets:
#	150
#	24273
#	53433
#
# Disc length: 1032 seconds
#
# Revision: 1
# Processed by: cddbd v1.5.1PL0 Copyright (c) Steve Scherf et al.
# Submitted via: CDex 1.50Beta5
#
DISCID=14040603
DTITLE=RIKUO - 美しい暮らし/夜の過ごし方朝の迎え方
DYEAR=2003
DGENRE=Pop
TTITLE0=美しい暮らし
TTITLE1=夜の過ごし方 朝の迎え方
TTITLE2=美しい暮らし(Instrumental)
EXTD=
EXTT0=
EXTT1=
EXTT2=
PLAYORDER=
